<?xml version="1.0" encoding="utf-8"?>
<!-- Generator: Adobe Illustrator 24.3.0, SVG Export Plug-In . SVG Version: 6.00 Build 0)  -->
<svg version="1.1" xmlns="http://www.w3.org/2000/svg" xmlns:xlink="http://www.w3.org/1999/xlink" x="0px" y="0px"
	 viewBox="0 0 2000 2000" style="enable-background:new 0 0 2000 2000;" xml:space="preserve">
<style type="text/css">
	.st0{fill:#39B549;}
	.st1{fill:#050165;}
	.st2{fill:#FFFFFF;}
	.st3{fill:none;}
</style>
<g id="Layer_1">
</g>
<g id="Layer_2">
	<path class="st0" d="M366.23,1024.11v36.91c0,8.47,4.94,16.46,12.93,19.75l4,1.65v4.93h-53.84c-8.93,3.29-18.34,4.94-28.44,4.94
		c-45.46,0-76.42-31.18-80.81-77.17c9.12-14.68,20.05-28.04,32.42-40.09c6.4-6.23,13.19-12.06,20.42-17.32
		c5.97-4.34,12.35-8.11,18.91-11.49c0.74-0.38,1.48-0.75,2.23-1.11c-0.52,0.16-1.04,0.33-1.55,0.51
		c-15.52,5.48-29.78,13.42-42.28,24.18c-3.92,3.37-7.66,6.95-11.18,10.74c-1.76,1.89-3.46,3.84-5.11,5.83
		c-0.41,0.5-4.03,5.62-4.39,5.47c-0.12-0.05-0.23-0.1-0.35-0.15c0.02,0.17,0.04,0.34,0.07,0.51c0.02,0.11,0.03,0.21,0.05,0.32
		c-3.72,4.59-6.96,9-9.77,13.1c-0.01-0.65-0.02-1.31-0.02-1.97c0-15.36,2.85-30.86,9.59-44.74c7.08-14.59,17.89-27.7,32.16-35.71
		c5.21-2.92,10.8-5.17,16.55-6.78c17.6-4.94,36.42-4.31,54.13-0.32c2.6,0.59,5.31,1.12,7.83,1.98c9.87,3.35,18.75,8.27,26.39,14.57
		c-8.12,5.59-16.12,10.98-23.9,16.55c-0.08,0.06-0.16,0.11-0.24,0.17c-2.97,2.13-5.9,4.28-8.8,6.48c-6.58,5-12.6,10.98-17.95,17.3
		c-3.1,3.67-6.43,7.15-10,10.36c-11.14,10.03-24.91,17.83-40.01,19.48c-1.66,0.18-3.84,0.42-4.5,2.24c-0.25,0.7-0.16,1.48-0.07,2.22
		c0.65,5.22,1.2,10.46,2.17,15.63c1.1,5.92,2.67,11.76,4.83,17.39c4.02,10.46,10.24,20.3,19.2,27.2
		c8.85,6.82,19.77,10.03,30.88,10.03c2.12,0,4.23,0,7.29-0.48v-53.13c0-8.46-5.17-16.69-13.17-20.21l-3.99-1.41v-4.71h75.23v4.71
		l-4,1.41C371.17,1007.42,366.23,1015.65,366.23,1024.11z"/>
	<path class="st0" d="M645.05,1058.57c-8.93,23.27-27.74,37.85-54.54,37.85c-36.2,0-62.3-26.33-62.3-65.59
		c0-39.26,26.1-65.36,61.83-65.36c31.27,0,54.78,20.22,54.78,55.01h-35.73c0.23-28.45-7.29-50.31-18.34-50.31
		c-11.28,0-21.16,23.27-21.39,50.31h75.46v4.94h-75.46c0.94,33.38,17.16,51.48,39.26,51.48c10.11,0,22.33-3.53,33.15-20.22
		L645.05,1058.57z"/>
	<path class="st0" d="M779.29,1058.57c-8.93,23.27-27.74,37.85-54.54,37.85c-36.2,0-62.3-26.33-62.3-65.59
		c0-39.26,26.1-65.36,61.83-65.36c31.27,0,54.78,20.22,54.78,55.01h-35.73c0.23-28.45-7.29-50.31-18.34-50.31
		c-11.28,0-21.16,23.27-21.39,50.31h75.46v4.94h-75.46c0.94,33.38,17.16,51.48,39.26,51.48c10.11,0,22.33-3.53,33.15-20.22
		L779.29,1058.57z"/>
	<path class="st0" d="M944.79,1086.54v4.94H874.5v-4.94l1.65-0.94c7.76-3.76,12.93-11.99,12.93-20.45v-61.12
		c0-14.11-6.58-23.98-17.16-23.98c-13.4,0-25.39,17.4-25.39,37.61v47.49c0,8.46,5.17,16.69,12.93,20.45l1.65,0.94v4.94h-70.29v-4.94
		l1.65-0.94c7.76-3.76,12.93-11.99,12.93-20.45v-68.41c0-8.46-5.17-16.93-12.93-20.69l-1.65-0.94v-4.94h55.72v24.45
		c8.23-17.87,25.86-29.15,47.49-29.15c26.1,0,36.2,16.22,36.2,33.38v66.3c0,8.46,5.17,16.69,12.93,20.45L944.79,1086.54z"/>
	<path class="st0" d="M1116.64,1061.86l40.67-114.25c2.82-8.46-0.24-15.75-8.23-19.28l-3.76-1.65v-4.94h41.61v4.94l-6.11,2.12
		c-8.23,3.29-15.52,10.34-18.34,18.81l-51.25,143.88h-28.21l-49.37-143.88c-2.59-8.46-9.87-15.52-17.87-18.81l-6.11-2.12v-4.94
		h79.93v4.94l-3.76,1.65c-7.76,3.53-11.29,10.81-8.46,19.28L1116.64,1061.86z"/>
	<path class="st0" d="M1262.87,1086.54v4.94h-70.29v-4.94l1.65-0.94c7.76-3.76,12.93-11.99,12.93-20.45v-68.41
		c0-8.46-5.17-16.69-12.93-20.69l-1.65-0.94v-4.94h55.72v94.98c0,8.46,5.17,16.69,12.93,20.45L1262.87,1086.54z M1227.37,919.39
		c14.81,0,24.92,7.99,24.92,19.75c0,11.99-10.11,19.98-24.92,19.98c-14.58,0-24.45-7.99-24.45-19.98
		C1202.92,927.39,1212.79,919.39,1227.37,919.39z"/>
	<path class="st0" d="M1277.2,997.21c0-19.28,21.16-31.74,48.9-31.74c22.33,0,40.67,8.23,51.96,22.33l-28.45,19.75
		c-3.29-23.04-11.75-37.38-24.45-37.38c-7.29,0-12.22,5.41-12.22,11.75c0,23.51,67.71,42.79,67.71,78.52
		c0,20.92-23.04,35.97-51.02,35.97c-22.33,0-44.2-9.64-54.78-22.33l28.68-19.98c3.29,23.04,11.52,37.38,24.45,37.38
		c10.58,0,16.69-9.64,16.69-17.63C1344.67,1046.81,1277.2,1031.3,1277.2,997.21z"/>
	<path class="st0" d="M1465.04,1086.54v4.94h-70.29v-4.94l1.65-0.94c7.76-3.76,12.93-11.99,12.93-20.45v-68.41
		c0-8.46-5.17-16.69-12.93-20.69l-1.65-0.94v-4.94h55.72v94.98c0,8.46,5.17,16.69,12.93,20.45L1465.04,1086.54z M1429.54,919.39
		c14.81,0,24.92,7.99,24.92,19.75c0,11.99-10.11,19.98-24.92,19.98c-14.58,0-24.45-7.99-24.45-19.98
		C1405.09,927.39,1414.96,919.39,1429.54,919.39z"/>
	<path class="st0" d="M1541.2,965.47c39.26,0,65.59,26.1,65.59,65.36c0,39.26-26.33,65.59-65.59,65.59
		c-39.26,0-65.36-26.33-65.36-65.59C1475.85,991.57,1501.94,965.47,1541.2,965.47z M1541.2,1091.48c14.58,0,24.21-24.21,24.21-60.65
		c0-36.21-9.64-60.65-24.21-60.65c-14.34,0-24.21,24.45-24.21,60.65C1516.99,1067.27,1526.86,1091.48,1541.2,1091.48z"/>
	<path class="st0" d="M1771.83,1086.54v4.94h-70.29v-4.94l1.65-0.94c7.76-3.76,12.93-11.99,12.93-20.45v-61.12
		c0-14.11-6.58-23.98-17.16-23.98c-13.4,0-25.39,17.4-25.39,37.61v47.49c0,8.46,5.17,16.69,12.93,20.45l1.65,0.94v4.94h-70.29v-4.94
		l1.65-0.94c7.76-3.76,12.93-11.99,12.93-20.45v-68.41c0-8.46-5.17-16.93-12.93-20.69l-1.65-0.94v-4.94h55.72v24.45
		c8.23-17.87,25.86-29.15,47.49-29.15c26.1,0,36.21,16.22,36.21,33.38v66.3c0,8.46,5.17,16.69,12.93,20.45L1771.83,1086.54z"/>
	<path class="st1" d="M829.04,918.4c-43.49-18.7-88.74-11.78-133.38-11.78c34.42,2.23,69.91-0.25,99.22,23.74
		c-39.28-17.51-80.66-15.16-121.97-13.55c31.86,2.72,65.13-0.54,92.27,22.15c-39.87-15.88-85.93-15.07-127.95-10.11
		c12.7-2.21,33.52-3.97,57.26,2.98c20.81,6.08,38.36,17.24,37.89,18.29c-0.34,0.75-10.14-3.15-15.59-5.08
		c-19.3-6.82-44.37-9.23-90.94-6.21c-50.39,3.26-99.33,15.39-148.67,25.06c-7.18,1.41-14.53,1.98-21.77,3.13
		c-5.99,0.95-10.37-1.17-11.96-6.94c-1.77-6.42,1.29-10.71,7.43-13.13c21.53-8.48,43.2-16.66,64.5-25.69
		c48.08-20.38,96.04-41.05,143.93-61.88c28.56-12.42,83.31-33.98,151.59-50.03c70.66-16.61,153.46-35.13,250.92-12.04
		c43.46,10.29,77.14,25.85,98.42,37.13c-35.97-11.89-83.62-23.95-140.51-28.78c-54.74-4.64-102.07-1.23-138.66,4.01
		c27.51-4.02,68.57-6.83,117.07,1.82c50.27,8.96,88.93,26.72,113.64,40.47c-22.84-9.84-50.53-19.75-78.89-24.8
		c-34.24-6.09-75.08-6.09-138.87-6.09c0,0,0,0,0,0c-16.33,1.3-38.67,3.75-65.12,8.77c4.78-0.52,9.54-1.15,14.33-1.55
		c32.48-2.72,86.81-9.88,141.87,3.35c17.36,4.17,41.67,11.93,69.29,27.56c-30.48-9.67-70-19.15-116.7-22.91
		c-29.05-2.34-68.69-2.29-115,3.4c-12.32,1.51-24.53,3.83-36.68,6.5c17.79-1.45,35.56-3.44,53.39-4.24
		c54.36-2.44,87.34-3.71,123.73,10.12c19.21,7.3,33.45,16.54,41.93,22.68c-28.68-11.3-53.44-16.83-71.41-19.77
		c-22.09-3.61-50.78-7.2-107.6-2.55c-16.25,1.33-32.46,3.1-46.71,4.48c-0.01,0-0.02,0-0.02,0c0,0.08,27.84-0.33,47.48-0.05
		c32.2,0.46,48.31,0.69,64.53,4.13c14.22,3.01,34.9,9.39,58.33,24.49c-1.72-0.77-4.52-2.01-8.02-3.43c0,0-24.54-9.92-55.45-14.53
		c-23.39-3.49-76.31-4.65-144.94,5.69c3.29-0.19,8.27-0.47,14.32-0.74c48.85-2.18,77.05-3.43,107.5,4.01
		c27.07,6.62,45.44,17.55,45.15,18.34c-0.35,0.95-27.42-12.54-66.41-16.06c-13.5-1.22-25.84-0.51-50.5,0.9
		c-12.9,0.74-74.06,4.62-75.15,4.67c-0.67,0.03,22.59-1.18,47.59-0.07c31.73,1.4,67.84,7.58,107.45,22.48
		c-3.15-0.68-7.82-1.68-13.49-2.78c-15.43-3.01-53.24-10.23-96.54-11.08c-38.09-0.75-65.97,4.24-65.51,4.18
		c17.14-2.17,41.43-3.37,69.86,1.38C792.38,902.93,813.91,911.22,829.04,918.4z"/>
	<path class="st1" d="M516.93,998.85l-41.37,14.81c0-20.21-2.12-33.61-8.47-33.61c-7.28,0-16.92,17.39-16.92,37.61v47.49
		c0,8.46,5.17,16.69,12.93,20.45l1.64,0.94v4.94h-70.29v-4.94l1.65-0.94c7.75-3.76,12.93-11.99,12.93-20.45v-68.41
		c0-8.47-5.18-16.93-12.93-20.69l-1.65-0.94v-4.94h17.49c-0.14-11.93-0.26-19.39-0.35-21.22c-0.04-0.79-0.21-3.49,1.47-5.12
		c1.5-1.44,3.76-1.33,4.65-1.3c4.62,0.19,14.77,0.13,28.54,0.07c-0.66,0.56-9.91,8.77-8.09,20.45c0.44,2.82,1.42,5.2,2.52,7.12h9.49
		v20.92c6.58-15.98,19.74-25.62,35.73-25.62C506.59,965.47,516.93,981.69,516.93,998.85z"/>
	<path class="st1" d="M407.43,939.41c-0.55-1.95-2.35-9.1,1.42-13.06c1.31-1.38,2.78-2.57,11.22-2.64
		c7.38-0.06,14.76,0.09,22.13-0.08c2.94-0.07,5.74,0.73,7.62,2.74c0.91,0.97,1.34,1.94,1.56,2.44c1.94,4.54-0.39,9.47-1.03,10.73
		C436.05,939.5,421.74,939.46,407.43,939.41z"/>
	<rect x="255.34" y="1111.2" class="st1" width="1516.49" height="112.14"/>
	<g>
		<path class="st2" d="M326.1,1192.94v-63.43h7.57v63.43H326.1z"/>
		<path class="st2" d="M369.35,1192.94v-48.02h5.95l0.9,9.15c3.06-6.16,8.65-9.42,16.58-9.42h1.62v7.43h-1.62
			c-10.09,0-15.95,5.8-15.95,15.68v25.19H369.35z"/>
		<path class="st2" d="M424.85,1192.94v-48.02h5.95l0.9,9.15c3.06-6.16,8.65-9.42,16.58-9.42h1.62v7.43h-1.62
			c-10.09,0-15.95,5.8-15.95,15.68v25.19H424.85z"/>
		<path class="st2" d="M478.54,1131.24c0-3.17,2.43-5.53,5.59-5.53c3.15,0,5.5,2.36,5.5,5.53s-2.34,5.62-5.5,5.62
			C480.98,1136.86,478.54,1134.41,478.54,1131.24z M480.35,1192.94v-48.02h7.48v48.02H480.35z"/>
		<path class="st2" d="M521.16,1195.75h7.48c0,5.71,5.77,10.06,14.14,10.06c9.82,0,14.96-5.89,14.96-14.14v-7.79
			c-3.33,4.98-9.1,8.25-16.4,8.25c-12.7,0-21.8-9.79-21.8-23.92c0-14.41,9.19-24.38,21.8-24.38c7.66,0,13.87,3.62,17.12,9.42
			l0.81-8.34h5.86v46.75c0,12.14-8.11,20.48-22.34,20.48C529.9,1212.15,521.16,1205.9,521.16,1195.75z M557.74,1167.94
			c0-10.33-6.31-17.58-15.32-17.58c-8.92,0-15.14,7.25-15.14,17.76c0,10.33,6.22,17.49,15.14,17.49
			C551.43,1185.6,557.74,1178.36,557.74,1167.94z"/>
		<path class="st2" d="M596.93,1179.26c0-11.06,10.63-13.14,20.18-14.14c7.3-0.72,13.6-0.63,13.69-4.53
			c-0.09-6.07-5.05-10.33-12.25-10.33c-6.94,0-12.34,3.9-13.15,9.6h-7.39c0.9-9.42,9.37-16.04,20.72-16.04
			c11.8,0,19.37,7.07,19.37,17.22v23.38c0,1.54,0.81,2.36,2.43,2.36h2.7v6.16h-4.23c-5.14,0-7.84-2.36-7.84-6.8v-1.45
			c-2.79,5.53-8.2,8.97-16.49,8.97C603.87,1193.67,596.93,1188.05,596.93,1179.26z M630.81,1173.55v-6.25
			c-2.07,2.81-7.39,3.35-13.24,3.99c-6.58,0.72-13.15,1.63-13.15,7.79c0,4.98,4.5,8.16,11.35,8.16
			C624.68,1187.24,630.81,1181.53,630.81,1173.55z"/>
		<path class="st2" d="M691.81,1192.94c-9.28,0-14.23-4.8-14.23-13.68v-28h-8.83v-6.34h8.83v-16.4h7.48v16.4h12.88v6.34h-12.88v28
			c0,4.8,2.34,7.34,6.76,7.34h5.32v6.34H691.81z"/>
		<path class="st2" d="M726.86,1131.24c0-3.17,2.43-5.53,5.59-5.53c3.15,0,5.5,2.36,5.5,5.53s-2.34,5.62-5.5,5.62
			C729.29,1136.86,726.86,1134.41,726.86,1131.24z M728.66,1192.94v-48.02h7.48v48.02H728.66z"/>
		<path class="st2" d="M767.85,1168.48c0-16.04,10.45-24.65,23.42-24.65c15.23,0,23.42,11.06,23.42,24.65
			c0,16.58-10,25.46-23.42,25.46C775.96,1193.94,767.85,1182.98,767.85,1168.48z M807.04,1168.48c0-10.78-6.22-18.12-15.77-18.12
			c-9.55,0-15.77,7.34-15.77,18.12c0,12.32,7.12,18.94,15.77,18.94C801.46,1187.42,807.04,1178.9,807.04,1168.48z"/>
		<path class="st2" d="M846.42,1192.94v-48.02h5.95l0.72,7.34c3.24-5.07,9.46-8.43,16.58-8.43c10.27,0,17.12,6.71,17.12,17.31v31.8
			h-7.48v-31.53c0-6.71-4.32-10.96-11.53-10.96c-8.56,0-13.78,5.98-13.87,13.32v29.18H846.42z"/>
		<path class="st2" d="M960.93,1175.18c0-10.24,7.48-15.31,15.14-19.21c-4.23-4.8-6.76-8.7-6.76-13.68
			c0-7.88,6.58-13.77,15.32-13.77c8.74,0,15.32,5.8,15.32,13.68c0,7.61-6.04,11.6-12.79,15.04l16.31,16.85
			c1.89-4.53,2.88-10.06,2.88-16.49h7.66c0,8.79-1.8,16.22-5.05,22.11l8.92,9.24l-5.68,4.98l-7.75-8.15
			c-5.05,5.26-11.89,8.15-20.09,8.15C970.57,1193.94,960.93,1186.24,960.93,1175.18z M999.49,1180.62l-19.1-20.03
			c-6.31,3.35-11.71,7.16-11.71,14.14c0,7.25,5.86,12.23,15.68,12.23C990.75,1186.96,995.8,1184.7,999.49,1180.62z M992.19,1142.38
			c0-4.17-3.24-7.25-7.48-7.25c-4.32,0-7.66,3.17-7.66,7.43c0,3.44,2.25,6.61,5.68,10.24
			C988.05,1150.08,992.19,1147.09,992.19,1142.38z"/>
		<path class="st2" d="M1090.76,1192.94v-67.96h7.48v67.96H1090.76z"/>
		<path class="st2" d="M1130.32,1179.26c0-11.06,10.63-13.14,20.18-14.14c7.3-0.72,13.6-0.63,13.69-4.53
			c-0.09-6.07-5.05-10.33-12.25-10.33c-6.94,0-12.34,3.9-13.15,9.6h-7.39c0.9-9.42,9.37-16.04,20.72-16.04
			c11.8,0,19.37,7.07,19.37,17.22v23.38c0,1.54,0.81,2.36,2.43,2.36h2.7v6.16h-4.23c-5.14,0-7.84-2.36-7.84-6.8v-1.45
			c-2.79,5.53-8.2,8.97-16.49,8.97C1137.25,1193.67,1130.32,1188.05,1130.32,1179.26z M1164.19,1173.55v-6.25
			c-2.07,2.81-7.39,3.35-13.24,3.99c-6.58,0.72-13.15,1.63-13.15,7.79c0,4.98,4.5,8.16,11.35,8.16
			C1158.06,1187.24,1164.19,1181.53,1164.19,1173.55z"/>
		<path class="st2" d="M1206.9,1192.94v-48.02h5.95l0.72,7.34c3.24-5.07,9.46-8.43,16.58-8.43c10.27,0,17.12,6.71,17.12,17.31v31.8
			h-7.48v-31.53c0-6.71-4.32-10.96-11.53-10.96c-8.56,0-13.78,5.98-13.87,13.32v29.18H1206.9z"/>
		<path class="st2" d="M1278.44,1168.66c0-14.68,8.83-24.83,21.62-24.83c7.21,0,13.24,3.17,16.67,8.25v-27.09h7.48v67.96h-5.95
			l-0.81-9.24c-3.15,6.25-9.46,10.24-17.3,10.24C1287.36,1193.94,1278.44,1183.61,1278.44,1168.66z M1316.73,1168.48
			c0-10.78-6.13-18.21-14.95-18.21c-9.19,0-15.59,7.52-15.59,18.39c0,11.06,6.22,18.76,15.14,18.76
			C1310.42,1187.42,1316.73,1179.62,1316.73,1168.48z"/>
		<path class="st2" d="M1356.1,1177.81h7.3c0.54,6.25,6.22,9.7,13.42,9.7c6.76,0,10-2.63,10-7.43c0-4.53-3.51-5.53-8.47-7.25
			l-6.94-2.36c-7.03-2.36-14.06-4.53-14.06-13.23c0-8.16,6.31-13.41,16.76-13.41c10.54,0,17.84,5.71,19.01,16.4h-7.3
			c-0.81-6.7-5.5-9.97-11.98-9.97c-5.86,0-9.28,2.63-9.28,6.8c0,4.98,5.23,5.98,9.19,7.34l6.49,2.17
			c8.74,2.9,13.96,5.89,13.96,13.86c0,8.43-6.13,13.5-17.75,13.5C1365.11,1193.94,1356.73,1187.96,1356.1,1177.81z"/>
		<path class="st2" d="M1422.87,1168.66c0-16.13,10.54-24.83,23.51-24.83c11.98,0,20.54,7.25,21.89,19.57h-7.3
			c-1.26-7.97-6.76-13.05-14.78-13.05c-9.46,0-15.77,6.98-15.77,18.3c0,12.23,7.39,18.76,16.31,18.76c7.66,0,12.88-4.89,14.23-13.23
			h7.3c-1.35,12.41-9.28,19.75-21.62,19.75C1431.16,1193.94,1422.87,1182.52,1422.87,1168.66z"/>
		<path class="st2" d="M1497.65,1179.26c0-11.06,10.63-13.14,20.18-14.14c7.3-0.72,13.6-0.63,13.69-4.53
			c-0.09-6.07-5.05-10.33-12.25-10.33c-6.94,0-12.34,3.9-13.15,9.6h-7.39c0.9-9.42,9.37-16.04,20.72-16.04
			c11.8,0,19.37,7.07,19.37,17.22v23.38c0,1.54,0.81,2.36,2.43,2.36h2.7v6.16h-4.23c-5.14,0-7.84-2.36-7.84-6.8v-1.45
			c-2.79,5.53-8.2,8.97-16.49,8.97C1504.59,1193.67,1497.65,1188.05,1497.65,1179.26z M1531.52,1173.55v-6.25
			c-2.07,2.81-7.39,3.35-13.24,3.99c-6.58,0.72-13.15,1.63-13.15,7.79c0,4.98,4.5,8.16,11.35,8.16
			C1525.4,1187.24,1531.52,1181.53,1531.52,1173.55z"/>
		<path class="st2" d="M1574.41,1211.07v-66.15h5.95l0.81,8.7c3.42-5.98,9.73-9.79,17.48-9.79c12.61,0,21.44,10.15,21.44,24.83
			c0,14.95-8.83,25.28-21.44,25.28c-7.3,0-13.33-3.35-16.76-8.97v26.1H1574.41z M1612.34,1168.66c0-10.78-6.04-18.3-14.95-18.3
			c-9.01,0-15.5,7.34-15.5,17.94c0,11.24,6.49,19.12,15.59,19.12C1606.31,1187.42,1612.34,1179.72,1612.34,1168.66z"/>
		<path class="st2" d="M1649.38,1169.11c0-16.4,10.54-25.28,22.61-25.28c13.15,0,21.62,8.88,21.89,24.29v2.08h-37.03
			c0.45,10.24,6.4,17.22,16.04,17.22c6.67,0,11.53-3.35,13.51-9.6h7.3c-2.16,9.88-9.91,16.13-20.81,16.13
			C1658.74,1193.94,1649.38,1183.52,1649.38,1169.11z M1686.04,1163.95c-1.35-8.43-6.4-13.59-14.05-13.59
			c-7.57,0-13.15,4.98-14.68,13.59H1686.04z"/>
	</g>
	<path id="SVGID_x5F_1_x5F_" class="st3" d="M489.85,922.66c71.24-42.76,179.73-96.36,320.61-125.72
		c196.27-40.9,360.11-14.91,452.44,7.12"/>
	<text>	<textPath  xlink:href="#SVGID_x5F_1_x5F_" startOffset="3.000000e-03%">
<tspan  class="st0" style="font-family:'Mahgin'; font-size:52.4277px;">Go Green</tspan><tspan  class="st0" style="font-family:'PPMori-SemiBold'; font-size:52.4277px; letter-spacing:32;"> </tspan>	</textPath>
</text>
</g>
</svg>
